<svg width="32px" height="32px" viewBox="0 0 32 32" id="Lager_62" data-name="Lager 62" xmlns="http://www.w3.org/2000/svg">
  <g id="Checkmark_1" data-name="Checkmark 1">
    <path id="Path_76" data-name="Path 76" d="M15.293,21.717l-7-6.834a.943.943,0,0,1,0-1.367l1.414-1.368a1.029,1.029,0,0,1,1.414,0L16,16.934,26.879,6.283a1.025,1.025,0,0,1,1.414,0L29.707,7.65a.942.942,0,0,1,0,1.366l-13,12.7A1.025,1.025,0,0,1,15.293,21.717Z" fill="#040505"/>
  </g>
  <path id="Path_77" data-name="Path 77" d="M30.02,16h-.04A1.979,1.979,0,0,0,28,17.98V27a1,1,0,0,1-1,1H5a1,1,0,0,1-1-1V5A1,1,0,0,1,5,4H22.02A1.979,1.979,0,0,0,24,2.02V1.98A1.979,1.979,0,0,0,22.02,0H2A2,2,0,0,0,0,2V30a2,2,0,0,0,2,2H30a2,2,0,0,0,2-2V17.98A1.979,1.979,0,0,0,30.02,16Z" fill="#161615"/>
</svg>
