<?xml version="1.0" standalone="no"?>
<!DOCTYPE svg PUBLIC "-//W3C//DTD SVG 20010904//EN"
 "http://www.w3.org/TR/2001/REC-SVG-20010904/DTD/svg10.dtd">
<svg version="1.0" xmlns="http://www.w3.org/2000/svg"
 width="51.000000pt" height="51.000000pt" viewBox="0 0 51.000000 51.000000"
 preserveAspectRatio="xMidYMid meet">
<metadata>
Created by potrace 1.10, written by Peter Selinger 2001-2011
</metadata>
<g transform="translate(0.000000,51.000000) scale(0.100000,-0.100000)"
fill="#000000" stroke="none">
<path d="M180 455 c0 -9 -9 -15 -25 -15 -50 0 -40 -55 23 -125 20 -23 44 -51
53 -62 9 -11 22 -22 28 -24 17 -6 3 -37 -18 -44 -13 -4 -17 -13 -14 -29 4 -20
0 -25 -18 -28 -18 -2 -25 -10 -27 -30 l-3 -28 116 0 c115 0 116 0 113 23 -2
12 -13 26 -25 32 -14 6 -23 18 -23 32 0 13 -4 23 -10 23 -5 0 -14 9 -20 19
-10 20 -10 19 86 121 34 36 56 94 42 108 -7 7 -20 12 -29 12 -9 0 -19 7 -23
15 -8 22 -226 22 -226 0z m208 -68 c-12 -146 -117 -198 -168 -84 -11 24 -20
64 -20 95 l0 52 96 0 97 0 -5 -63z m62 26 c0 -10 -42 -84 -46 -81 -2 3 -1 25
2 50 5 38 9 45 25 41 11 -3 19 -7 19 -10z m-268 -35 c3 -24 4 -45 2 -47 -5 -5
-44 63 -44 77 0 6 9 12 19 12 15 0 20 -9 23 -42z m131 -178 c4 -16 0 -20 -18
-20 -18 0 -22 4 -18 20 3 11 11 20 18 20 7 0 15 -9 18 -20z m34 -55 c0 -11
-13 -15 -54 -15 -40 0 -53 4 -53 15 0 11 13 15 53 15 41 0 54 -4 54 -15z m43
-45 c0 -6 -38 -10 -95 -10 -57 0 -95 4 -95 10 0 6 38 10 95 10 57 0 95 -4 95
-10z"/>
<path d="M281 402 c-6 -12 -18 -22 -26 -22 -17 0 -20 -16 -4 -26 6 -3 9 -14 6
-24 -4 -14 2 -17 34 -16 30 0 39 5 39 18 0 9 5 20 10 23 16 10 11 25 -8 25
-11 0 -23 10 -29 22 l-10 23 -12 -23z m32 -48 c-6 -17 -29 -19 -39 -3 -8 14
14 29 32 22 7 -2 10 -11 7 -19z"/>
</g>
</svg>
