<?xml version="1.0" standalone="no"?>
<!DOCTYPE svg PUBLIC "-//W3C//DTD SVG 20010904//EN"
 "http://www.w3.org/TR/2001/REC-SVG-20010904/DTD/svg10.dtd">
<svg version="1.0" xmlns="http://www.w3.org/2000/svg"
 width="1000.000000pt" height="1000.000000pt" viewBox="0 0 1000.000000 1000.000000"
 preserveAspectRatio="xMidYMid meet">
<metadata>
Created by potrace 1.14, written by Peter Selinger 2001-2017
</metadata>
<g transform="translate(0.000000,1000.000000) scale(0.100000,-0.100000)"
fill="#000000" stroke="none">
<path d="M3410 9902 c0 -4 -12 -13 -27 -20 -30 -13 -81 -58 -293 -259 -52 -49
-74 -63 -107 -68 -45 -6 -232 -43 -248 -49 -5 -1 -22 -6 -38 -11 -28 -7 -37
-20 -110 -155 -19 -36 -58 -105 -87 -155 -29 -49 -83 -160 -120 -245 -49 -110
-75 -159 -92 -167 -40 -21 -58 -37 -58 -51 0 -24 41 -91 108 -177 28 -37 133
-164 149 -180 40 -43 62 -78 56 -88 -3 -5 -1 -7 5 -3 6 3 39 -34 78 -86 37
-51 91 -121 120 -154 29 -34 50 -65 46 -69 -4 -5 -2 -6 3 -3 6 2 28 -15 49
-39 l40 -44 -30 7 c-31 8 -182 9 -224 1 -14 -3 -43 -8 -65 -11 -41 -7 -55 -11
-185 -45 -41 -11 -104 -27 -139 -36 -58 -14 -72 -23 -130 -80 -35 -36 -70 -66
-78 -66 -14 -2 -32 -6 -35 -8 -2 -1 -20 -4 -41 -6 -56 -6 -160 -60 -212 -109
-29 -28 -58 -71 -80 -119 -30 -65 -36 -90 -41 -179 -4 -57 -11 -109 -17 -116
-8 -10 -4 -20 16 -38 29 -27 29 -43 -4 -108 -44 -90 -3 -246 84 -322 43 -36
106 -70 142 -75 40 -6 84 11 87 34 4 31 58 28 91 -6 l25 -24 -25 -44 c-13 -24
-43 -66 -66 -94 -69 -82 -100 -186 -122 -415 -2 -25 -11 -88 -19 -140 -21
-131 -29 -211 -30 -308 l-1 -83 -57 -23 c-32 -13 -58 -21 -58 -17 0 3 -4 1 -8
-4 -11 -17 -144 -74 -187 -81 -22 -4 -71 -8 -110 -9 -38 -1 -73 -3 -76 -4 -13
-3 -58 -49 -86 -88 -17 -23 -55 -63 -86 -88 -31 -25 -65 -58 -76 -74 -24 -33
-47 -119 -56 -206 -10 -103 -20 -171 -35 -250 -6 -27 -12 -70 -14 -95 -6 -65
-17 -148 -26 -205 -12 -74 -5 -199 20 -333 14 -77 78 -300 91 -315 11 -14 -16
-99 -44 -142 -14 -22 -51 -67 -82 -100 -31 -33 -63 -73 -72 -90 -75 -144 -95
-203 -108 -335 -4 -36 -9 -73 -10 -83 -2 -9 -6 -50 -10 -90 -3 -40 -7 -82 -9
-94 -16 -80 -16 -140 -2 -175 9 -21 23 -56 33 -78 14 -34 14 -44 3 -68 -8 -15
-14 -29 -15 -32 -21 -80 -63 -184 -86 -212 -16 -20 -29 -41 -29 -47 0 -5 -3
-11 -7 -13 -5 -1 -26 -30 -48 -63 -22 -33 -61 -88 -87 -123 -41 -55 -46 -68
-41 -100 8 -58 60 -228 128 -420 14 -40 23 -78 19 -84 -4 -6 -3 -8 3 -5 6 4
19 -18 32 -51 11 -32 53 -107 92 -168 40 -60 72 -114 72 -121 0 -7 3 -11 6 -9
3 2 22 -19 41 -47 19 -29 43 -61 53 -71 9 -11 17 -25 17 -32 0 -7 4 -14 9 -16
9 -3 71 -151 71 -169 0 -6 15 -31 32 -57 18 -26 32 -51 30 -55 -1 -5 1 -6 6
-3 5 3 20 -6 32 -19 13 -14 28 -25 33 -25 14 0 57 -37 51 -43 -3 -3 2 -3 13
-1 11 3 32 -8 57 -30 21 -20 42 -36 47 -36 5 0 9 -4 9 -8 0 -8 46 -34 60 -34
3 0 16 -8 30 -18 23 -16 128 -56 140 -53 3 1 25 4 50 8 56 8 91 27 162 87 11
10 25 15 29 12 5 -3 9 -1 9 5 0 6 15 17 33 26 46 22 84 59 159 155 57 74 85
115 166 242 24 38 31 35 22 -9 -12 -53 -20 -101 -26 -148 -6 -43 -7 -52 -18
-105 -4 -19 -9 -48 -11 -65 -2 -16 -5 -32 -6 -35 -3 -6 -4 -12 -14 -75 -4 -27
-9 -59 -11 -70 -3 -11 -11 -60 -19 -110 -16 -93 -21 -121 -31 -167 l-6 -28
2505 0 c1926 0 2506 3 2509 12 2 6 1 31 -2 55 -8 49 3 56 25 16 8 -16 26 -40
39 -55 l25 -28 561 0 561 0 16 37 c8 21 16 43 17 48 1 6 4 15 8 20 11 19 31
160 30 220 0 67 5 80 48 123 16 17 30 37 30 44 0 10 10 13 35 10 39 -5 85 19
85 44 0 8 4 13 9 10 5 -3 2 13 -6 36 -18 53 -14 67 46 158 56 85 103 140 120
140 6 0 10 4 9 8 -2 4 22 36 52 71 30 34 59 69 63 77 5 8 12 12 18 9 5 -3 6 1
3 10 -4 11 4 19 30 30 20 9 41 13 47 10 5 -4 8 -2 7 3 -2 5 12 21 30 37 18 15
40 41 48 57 14 28 28 97 25 126 -1 6 -2 21 -3 31 -1 11 -6 17 -10 15 -4 -3 -8
-1 -8 4 0 5 -13 25 -30 43 -16 19 -30 37 -30 41 0 4 -21 22 -47 40 -67 45 -67
46 -103 134 -18 43 -42 102 -55 129 -12 28 -26 61 -30 75 -4 14 -11 30 -15 35
-4 6 -13 28 -19 50 -7 22 -16 49 -21 60 -4 11 -22 63 -40 115 -18 52 -36 104
-40 115 -16 40 -23 60 -27 80 -7 41 -13 81 -19 120 -3 22 -17 78 -31 125 -34
119 -51 178 -64 230 -7 25 -17 51 -23 59 -8 11 -8 13 1 7 9 -5 8 2 -2 21 -8
15 -24 62 -36 103 -30 105 -67 225 -91 293 -12 31 -18 60 -15 63 3 3 -4 22
-15 42 -11 21 -27 62 -35 92 -7 30 -15 60 -17 65 -1 6 -6 28 -11 50 -4 22 -11
45 -15 50 -4 6 -10 23 -14 39 -4 17 -15 35 -23 42 -9 6 -18 23 -20 37 -2 13
-17 78 -33 143 -16 64 -26 122 -23 127 3 6 1 7 -5 3 -7 -4 -12 0 -13 11 0 10
-2 25 -5 33 -2 8 -22 80 -44 160 -33 116 -68 245 -94 345 -2 6 -9 24 -15 40
-7 17 -26 64 -41 105 -67 178 -198 472 -247 555 -45 74 -99 154 -171 250 -62
84 -83 106 -114 116 -20 6 -35 17 -31 22 3 6 1 7 -5 3 -10 -6 -51 9 -187 69
-63 29 -110 48 -120 50 -5 1 -30 12 -55 23 -42 18 -71 30 -217 83 -32 12 -70
26 -85 31 -15 6 -29 8 -31 7 -2 -2 -10 1 -18 7 -8 6 -75 30 -149 53 -74 23
-146 47 -160 53 -14 5 -35 12 -47 14 -12 2 -75 22 -140 44 -65 23 -128 43
-139 45 -23 5 -146 49 -179 65 -11 5 -56 23 -100 40 -44 18 -91 37 -105 42
-14 6 -31 12 -38 14 -30 6 -62 36 -62 57 0 13 -4 27 -9 32 -4 6 -16 33 -26 60
-10 28 -24 57 -31 65 -8 9 -19 39 -25 67 -16 70 -59 153 -89 175 -14 10 -50
27 -80 37 l-55 20 1 73 0 73 62 63 c34 34 60 62 57 62 -3 0 12 26 33 58 21 31
44 73 52 92 7 19 25 51 40 70 15 19 32 45 39 58 7 12 17 20 23 16 6 -4 8 -3 5
3 -4 6 0 24 8 39 8 16 15 35 15 42 0 7 3 11 8 9 9 -6 8 85 -2 139 -7 39 -5 43
59 120 36 43 74 97 85 119 10 22 43 66 72 97 98 105 153 170 161 191 4 12 1
46 -7 81 -9 34 -17 89 -19 122 -2 34 -7 66 -10 71 -3 5 -8 27 -11 49 -3 21
-10 64 -15 94 -5 30 -7 58 -4 63 2 4 -1 7 -8 7 -7 0 -10 3 -6 6 10 10 -15 67
-39 88 -19 18 -24 35 -30 111 -4 50 -8 99 -9 110 -2 11 -4 27 -4 36 -1 14
-111 138 -111 124 0 -3 -15 8 -32 25 -77 71 -118 104 -200 160 -97 67 -285
180 -299 180 -5 0 -9 5 -9 12 0 6 -3 9 -6 5 -3 -3 -45 14 -92 37 -136 68 -290
130 -417 169 -156 48 -217 58 -383 61 -264 6 -304 12 -390 60 -121 68 -161 86
-200 92 -20 3 -41 9 -47 12 -15 9 -35 11 -35 4z"/>
<path d="M5629 7803 c-13 -16 -12 -17 4 -4 9 7 17 15 17 17 0 8 -8 3 -21 -13z"/>
<path d="M1700 286 c0 -2 8 -10 18 -17 15 -13 16 -12 3 4 -13 16 -21 21 -21
13z"/>
</g>
</svg>
