<?xml version="1.0" encoding="iso-8859-1"?>
<!-- Generator: Adobe Illustrator 19.1.0, SVG Export Plug-In . SVG Version: 6.00 Build 0)  -->
<svg version="1.1" id="Capa_1" xmlns="http://www.w3.org/2000/svg" xmlns:xlink="http://www.w3.org/1999/xlink" x="0px" y="0px"
	 viewBox="0 0 484.9 484.9" style="enable-background:new 0 0 484.9 484.9;" xml:space="preserve">
<g>
	<g>
		<g>
			<path d="M477.1,419.475c-27-22.1-56-36.8-61.9-39.7c-0.7-0.3-1.1-1-1.1-1.7v-42c5.3-3.5,8.8-9.5,8.8-16.3v-43.5
				c0-21.6-17.6-39.2-39.2-39.2H379h-4.7c-21.6,0-39.2,17.5-39.2,39.2v43.5c0,6.8,3.5,12.8,8.8,16.3v42c0,0.3-0.1,0.5-0.1,0.7
				c8.3,5.7,16.9,12,25.3,18.9c9.9,8.1,15.5,20.1,15.5,32.9v35h100.3v-29.8C484.8,429.475,482,423.475,477.1,419.475z"/>
		</g>
		<g>
			<path d="M357.7,411.375c-31.7-26-65.8-43.3-72.8-46.7c-0.8-0.4-1.3-1.2-1.3-2.1v-49.3c6.2-4.1,10.3-11.2,10.3-19.2v-51.1
				c0-25.4-20.6-46.1-46.1-46.1h-5.4h-5.5c-25.4,0-46.1,20.6-46.1,46.1v51.1c0,8,4.1,15.1,10.3,19.2v49.3c0,0.9-0.5,1.7-1.3,2.1
				c-7,3.4-41.1,20.7-72.8,46.7c-5.7,4.7-9,11.7-9,19.2v35h124.4h124.4v-35C366.8,423.075,363.5,416.075,357.7,411.375z"/>
		</g>
		<g>
			<path d="M140.9,377.975v-42c5.3-3.5,8.8-9.5,8.8-16.3v-43.5c0-21.6-17.5-39.2-39.2-39.2h-4.7h-4.7c-21.6,0-39.2,17.6-39.2,39.2
				v43.5c0,6.8,3.5,12.8,8.8,16.3v42c0,0.7-0.4,1.4-1.1,1.7c-5.9,2.9-35,17.6-61.9,39.7c-4.9,4-7.7,10-7.7,16.3v29.8h100.3v-35
				c0-12.8,5.7-24.8,15.5-32.9c8.4-6.9,17-13.3,25.3-18.9C141,378.475,140.9,378.175,140.9,377.975z"/>
		</g>
		<g>
			<circle cx="395.1" cy="108.875" r="29.1"/>
		</g>
		<g>
			<path d="M328.8,169.075c-3.4,7.3-9.2,16.3-18.5,20.9c-3.1,1.5-2.4,6.1,1,6.6c10.1,1.6,24.6-0.2,38.2-10.4l0.2,0.2
				c34.4,20.2,79.4,15.6,108.9-13.9c35-35,35-91.9,0-126.9s-91.9-35-126.9,0c-33.7,33.7-35,87.7-3.8,122.9L328.8,169.075z
				 M328.3,103.175c0.1-3.1,2.6-5.6,5.8-5.5l8.4,0.2c1.5-7.1,4.5-13.9,8.9-20l-5.8-6.1c-2.2-2.3-2.1-5.8,0.2-8l6.3-6
				c2.3-2.2,5.8-2.1,8,0.2l5.9,6.1c6.3-4.1,13.2-6.7,20.4-7.9l0.2-8.6c0.1-3.1,2.6-5.6,5.8-5.5l8.7,0.2c3.1,0.1,5.6,2.6,5.5,5.8
				l-0.2,8.6c7,1.5,13.8,4.4,19.9,8.8l6.2-6c2.3-2.2,5.8-2.1,8,0.2l6,6.3c2.2,2.3,2.1,5.8-0.2,8l-6.2,6c4.1,6.3,6.7,13.2,7.9,20.3
				l8.6,0.2c3.1,0.1,5.6,2.6,5.5,5.8l-0.2,8.7c-0.1,3.1-2.6,5.6-5.8,5.5l-8.6-0.2c-1.5,7.1-4.4,13.9-8.7,20l5.9,6.1
				c2.2,2.3,2.1,5.8-0.2,8l-6.3,6c-2.3,2.2-5.8,2.1-8-0.2l-5.8-6.1c-6.3,4.1-13.3,6.8-20.4,8l-0.2,8.4c-0.1,3.1-2.6,5.6-5.8,5.5
				l-8.7-0.2c-3.1-0.1-5.6-2.6-5.5-5.8l0.2-8.3c-7.1-1.5-14-4.4-20.2-8.8l-6,5.7c-2.3,2.2-5.8,2.1-8-0.2l-6-6.3
				c-2.2-2.3-2.1-5.8,0.2-8l6-5.7c-4.1-6.3-6.8-13.3-8-20.5l-8.3-0.2c-3.1-0.1-5.6-2.6-5.5-5.8L328.3,103.175z"/>
		</g>
	</g>
</g>
<g>
</g>
<g>
</g>
<g>
</g>
<g>
</g>
<g>
</g>
<g>
</g>
<g>
</g>
<g>
</g>
<g>
</g>
<g>
</g>
<g>
</g>
<g>
</g>
<g>
</g>
<g>
</g>
<g>
</g>
</svg>
